<?xml version="1.0" standalone="no"?>
<!DOCTYPE svg PUBLIC "-//W3C//DTD SVG 20010904//EN"
 "http://www.w3.org/TR/2001/REC-SVG-20010904/DTD/svg10.dtd">
<svg version="1.0" xmlns="http://www.w3.org/2000/svg"
 width="438.000000pt" height="115.000000pt" viewBox="0 0 438.000000 115.000000"
 preserveAspectRatio="xMidYMid meet">
<metadata>
Created by potrace 1.16, written by Peter Selinger 2001-2019
</metadata>
<g transform="translate(0.000000,115.000000) scale(0.100000,-0.100000)"
fill="#000000" stroke="none">
<path d="M112 738 l3 -353 32 -68 c92 -195 310 -301 525 -256 131 27 252 118
309 232 23 46 34 57 53 57 24 0 24 1 28 126 3 111 5 127 22 140 29 21 63 17
80 -8 12 -17 16 -50 16 -140 l0 -118 70 0 70 0 0 140 c0 202 -25 250 -131 250
-41 0 -109 -32 -109 -51 0 -5 -4 -9 -10 -9 -5 0 -10 11 -10 25 0 16 -6 25 -15
25 -13 0 -15 27 -15 180 l0 180 -175 0 c-110 0 -175 -4 -175 -10 0 -6 62 -10
165 -10 l165 0 0 -170 0 -170 -45 0 -45 0 0 -190 0 -190 36 0 35 0 -32 -61
c-79 -147 -228 -225 -414 -217 -82 3 -101 8 -167 41 -98 48 -167 116 -215 214
l-38 77 -3 333 -3 333 180 0 c114 0 181 4 181 10 0 6 -68 10 -185 10 l-186 0
3 -352z"/>
<path d="M457 856 c-66 -24 -111 -61 -141 -116 -75 -138 -26 -317 104 -382 30
-15 74 -30 98 -33 l42 -7 0 64 c0 63 -1 65 -32 79 -46 20 -71 69 -71 139 0 72
25 121 71 135 32 9 32 10 32 72 l0 63 -32 0 c-18 -1 -50 -7 -71 -14z"/>
<path d="M600 808 c0 -63 0 -64 32 -73 52 -16 73 -55 73 -135 0 -78 -19 -115
-73 -139 -31 -14 -32 -16 -32 -79 l0 -64 43 7 c143 23 226 111 235 249 2 39
-1 90 -7 113 -26 94 -116 167 -221 180 l-50 6 0 -65z"/>
<path d="M1509 832 c-60 -31 -113 -93 -129 -150 -5 -20 -10 -64 -10 -98 0
-171 100 -264 284 -264 113 0 195 47 231 132 30 73 26 78 -70 78 -77 0 -85 -2
-85 -19 0 -33 -49 -64 -93 -58 -50 7 -72 28 -86 84 -16 60 -5 127 26 164 20
23 33 29 64 29 41 0 79 -26 79 -55 0 -12 16 -15 85 -15 96 0 100 5 70 77 -22
52 -42 72 -100 99 -76 36 -193 34 -266 -4z"/>
<path d="M2025 700 c-43 -21 -75 -64 -75 -99 0 -19 6 -21 63 -21 52 0 64 3 75
21 10 15 21 19 45 17 26 -2 33 -8 35 -29 3 -26 1 -26 -65 -31 -138 -10 -200
-76 -163 -172 23 -61 148 -89 203 -46 30 24 37 25 37 5 0 -12 14 -15 70 -15
l70 0 0 135 c0 164 -13 206 -71 235 -53 28 -169 28 -224 0z"/>
<path d="M2565 689 l-35 -31 0 26 c0 26 -1 26 -70 26 l-70 0 0 -190 0 -190 70
0 70 0 0 118 c0 125 11 162 50 162 42 0 50 -24 50 -156 l0 -124 70 0 70 0 0
120 c0 107 2 122 20 140 24 24 43 25 64 4 13 -12 16 -40 16 -140 l0 -124 73 0
72 0 -5 166 -5 166 -33 29 c-44 39 -119 41 -174 4 l-37 -25 -25 25 c-21 21
-35 25 -80 25 -48 0 -60 -4 -91 -31z"/>
<path d="M3274 701 c-18 -10 -34 -25 -37 -33 -3 -7 -6 -1 -6 15 -1 27 -1 27
-76 27 l-75 0 0 -255 0 -255 75 0 75 0 0 85 0 84 36 -24 c49 -33 118 -34 165
-2 99 65 108 261 15 346 -37 34 -127 41 -172 12z m50 -91 c44 -17 56 -119 18
-162 -9 -11 -29 -18 -48 -18 -44 0 -64 30 -64 96 0 45 4 56 26 73 30 24 34 24
68 11z"/>
<path d="M4080 700 c-53 -28 -76 -81 -60 -141 15 -56 42 -71 173 -94 32 -5 38
-10 35 -28 -4 -31 -51 -35 -75 -8 -14 17 -29 21 -80 21 -69 0 -72 -3 -46 -57
23 -48 78 -72 166 -73 121 0 177 42 177 135 0 75 -36 104 -145 119 -62 9 -80
19 -72 40 8 21 65 22 73 1 9 -23 134 -22 134 1 0 28 -33 73 -66 89 -46 22
-169 19 -214 -5z"/>
<path d="M3560 578 c0 -155 9 -197 51 -232 25 -21 41 -26 84 -26 46 0 59 5 90
31 l35 31 0 -26 c0 -26 1 -26 70 -26 l70 0 0 190 0 190 -70 0 -70 0 0 -116 c0
-120 -7 -146 -41 -164 -16 -9 -26 -8 -45 5 -23 15 -24 19 -24 145 l0 130 -75
0 -75 0 0 -132z"/>
</g>
</svg>
